<?xml version="1.0" encoding="utf-8"?>
<!-- Generator: Adobe Illustrator 19.2.1, SVG Export Plug-In . SVG Version: 6.00 Build 0)  -->
<svg version="1.1" id="layer" xmlns="http://www.w3.org/2000/svg" xmlns:xlink="http://www.w3.org/1999/xlink" x="0px" y="0px"
	 viewBox="-220 75 1350 500" style="enable-background:new -220 75 1350 500;" xml:space="preserve">
<style type="text/css">
	.st0{fill:#A9132A;}
</style>
<path class="st0" d="M75.2,550.1l6.5,10.2l-0.4,0.3c-8.1,6.6-18.6,13.6-40.7,14.1c-0.5,0-1.1,0-1.6,0c-14.9,0-28.6-6.4-38.4-17.9
	C-8,546.7-13.1,533-13.1,520.3c0-35,25.3-52.5,50.4-54.4c1.2-0.1,2.4-0.1,3.6-0.1c16.1,0,32.1,6.8,40.1,13l0.4,0.3l-6.5,10.2
	l-0.5-0.4c-7.6-6.5-20.6-13.5-34.1-13.5c-10.9,0-21.2,4.3-28.9,12.2C3.2,496-1.4,507.8-1.1,519.9c0.3,18.1,13.4,43.9,41.6,44.4
	l0.7,0c14.6,0,23.4-5.1,33.5-13.8L75.2,550.1z M103.6,528.7c0-17.4,0.4-34.5,0.5-39.3l0-1.4h-12l0,1.4c0,2.4,0.1,5,0.1,7.7
	c0.1,9.2,0.3,20.5,0.3,31.6c0,13.5-0.3,27-0.4,35.9c0,2.4-0.1,4.5-0.1,6.2l0,1.4h12.1l-0.1-1.5C103.9,564.7,103.6,546.9,103.6,528.7
	 M181.6,489.4c0.1,5.5,0.4,20.7,0.6,35.5c0.2,10.7,0.3,20.9,0.4,27.4c-7-7.9-20.4-23-32.5-36.4c-12.2-13.7-23.8-26.6-25.9-29.1
	l-0.4-0.5H120l0,1.4c0.3,15.8-0.4,73.9-0.8,83.1l-0.1,1.5h12.1l-1.7-62.9c2.1,2.3,4.7,5.2,7.6,8.5c15.2,17,38.2,42.7,50.1,55.6
	l0.4,0.5h3.9v-1.4c0-4.5,0.4-19.7,0.8-35.8c0.5-18.7,1-40,1-47.4V488h-11.9L181.6,489.4z M218.9,562.6c-0.5,0-0.9,0-1.4,0
	c-0.1-2.6-0.1-5.2-0.2-7.8c-0.2-7.3-0.5-14.8-0.4-22.1c2.8,0.1,5.5,0.1,8.2,0.1c5.1,0,10.3,0,15.4,0.4l1.3,0.1l0.2-1.3
	c0.3-1.9,0.6-3.6,0.8-5.3c0.1-0.9,0.2-1.8,0.4-2.7l0.3-1.7l-7.2,0.3c-7.4,0.3-12.8,0.5-17,0.5c-0.9,0-1.8,0-2.6,0
	c0-1.9-0.1-3.8-0.1-5.7c-0.1-6.2-0.3-12.6-0.1-20.2c6.9-0.1,17.3,0.6,27.7,1.7l1.7,0.2l-0.3-3.2c-0.2-2.2-0.3-4-0.7-6.6l-0.1-1.2
	h-40v1.4c0,0.6,0.1,2.3,0.2,5.1c0.3,7,0.9,19.9,1.1,33.5c0.1,15.6-0.3,32.1-0.5,40l-0.1,4.3l1.4,0c5.9,0,12-0.1,17.5-0.1
	c8.1,0,18.9,0.1,24,0.3l1.4,0.1l0.1-1.4c0.1-1.4,0.2-2.9,0.3-4.4c0.1-1.6,0.3-3.2,0.3-4.8l0.1-1.9l-1.8,0.4
	C244.7,561.5,228.8,562.6,218.9,562.6 M367.4,468.8l-0.1-0.4l-3-0.2l-0.1,0.4c-2.2,5.9-24.7,61.2-32,79c-1.2-2.8-3-6.7-5.1-11.3
	c-8.6-18.9-22.9-50.7-29.3-67.7l-0.1-0.4l-3,0.2l-0.1,0.5c-0.8,6-27.6,93-30.3,101.1l-0.2,0.5l10.9,3.6l0.2-0.6
	c0.9-3,5.9-21,11.3-40c4.2-14.9,8.4-30,10.6-37.8c7.3,16,19.2,44.6,26.3,61.9c2.7,6.5,4.8,11.5,5.8,14l0.1,0.3h2.5l0.1-0.3
	c0.4-1,2.1-5.2,4.6-11.2c7.1-17.4,20-49.2,25.8-62.8c1.8,6.6,5,18.3,8.3,30.5c5.3,19.4,11.4,41.5,12.4,46l0.1,0.6l12.8-4.3L396,570
	C387,542.3,373.4,492.5,367.4,468.8 M447.3,529.7c-3-6.4-6.8-14.7-9.7-21c-2.4,6.2-5.6,14.4-8.2,21H447.3 M440.9,488.6
	c8.1,19.8,25.1,57.1,36.5,79l0.7,1.3l-1.4,0.6c-1.4,0.6-3.4,1.5-5.5,2.4l-4.1,1.8l-0.6-1.3c-6.5-14.7-11.3-25.1-15-32.6
	c-3.1,0-8.3,0-13.5-0.1c-5-0.1-9.8-0.1-12.6-0.1c-2.8,6.3-6.9,17.5-9.7,25c-1.4,3.8-2.4,6.6-2.8,7.5l-0.5,1.3l-1.3-0.5
	c-1.8-0.7-3.5-1.5-5-2.2c-1.1-0.5-2.1-1-3-1.4l-1.4-0.6l0.6-1.3c6-12.6,23.7-53.8,33.8-78.8l0.4-0.9h4L440.9,488.6 M515.6,495.8
	c10.3-0.7,20.6,2.7,28.1,9.1l1.2,1.1l6.3-9.8l-1-0.8c-6.9-5.5-19.3-9.3-30.9-9.3c-26.6,0-45.2,18.1-45.2,44.1
	c0,10.6,4.1,21.4,11.3,29.4c5.7,6.4,15.9,14.1,32,14.1l0.5,0c15.5-0.1,25.9-4.6,31.9-8.4l0.7-0.4l0-0.8c-0.1-3-0.1-10.8-0.1-18.4
	c0-7.6,0-14.8-0.1-16.6l0-1.4h-12.1v1.4c0,8,0.3,24.1,0.5,30.2c-3.3,1.6-11.6,4.6-20.2,4.6l-0.5,0c-15.4-0.1-31.1-11.8-31.5-33.8
	C486,508.1,500.7,497,515.6,495.8 M575.3,528.7c0-17.5,0.4-34.5,0.5-39.3l0-1.4h-12l0,1.4c0,2.3,0.1,4.9,0.1,7.5
	c0.1,9.2,0.3,20.6,0.3,31.8c0,13.5-0.3,27-0.4,35.9c0,2.4-0.1,4.5-0.1,6.2l0,1.4h12.1l-0.1-1.5C575.6,564.7,575.3,546.9,575.3,528.7
	 M660.3,552.8l-1.2,1.1c-8,6.9-14.8,10.8-26.3,10.8h-0.6c-22-0.4-32.2-20.5-32.4-34.7c-0.2-9.5,3.4-18.7,9.8-25.3
	c6-6.1,14-9.5,22.5-9.5c10.6,0,20.7,5.5,26.7,10.6l1.2,1l6.3-9.8l-1-0.8c-6.5-5.1-19.6-10.7-32.7-10.7c-1,0-2,0-3,0.1
	c-20.6,1.5-41.3,15.9-41.3,44.6c0,10.4,4.2,21.6,11.2,29.9c8.1,9.5,19.2,14.7,31.5,14.7c0.4,0,0.9,0,1.3,0
	c19.5-0.4,28.4-7.6,33.2-11.5l1-0.8L660.3,552.8z"/>
<path class="st0" d="M356.5,99.6c-1.9,0-2.8,2.3-1.4,3.6c46.8,45.2,57.9,110.6,33.3,159.5c-1.8,3.4,1.9,5.6,4.5,3
	c42.6-50,46.7-118.4,12.6-164.6c-0.7-1-1.9-1.5-3.1-1.5H356.5z M366.1,107.4l-2.5-2.4c-0.8-0.8-0.8-2.1,0-2.9c0.8-0.8,2.1-0.9,2.9,0
	l0,0l2.4,2.5c0.8,0.8,0.8,2.1,0,2.9c-0.4,0.4-0.9,0.6-1.4,0.6C367.1,108,366.5,107.8,366.1,107.4 M402.2,105.1l-1-1.4
	c-0.4-0.6-0.3-1.5,0.3-1.9c0.6-0.5,1.5-0.3,1.9,0.3l0,0l1,1.4c0.4,0.6,0.3,1.5-0.3,1.9c-0.2,0.2-0.5,0.2-0.8,0.2
	C402.9,105.7,402.5,105.5,402.2,105.1 M408.1,114.2l-1.8-2.9c-0.4-0.6-0.2-1.4,0.4-1.8c0.6-0.4,1.4-0.2,1.8,0.4l0,0l1.7,2.9
	c0.4,0.6,0.2,1.4-0.5,1.8c-0.2,0.1-0.4,0.2-0.7,0.2C408.8,114.8,408.4,114.6,408.1,114.2 M374,115.9l-2.3-2.6
	c-0.7-0.8-0.6-2,0.2-2.7c0.8-0.7,2-0.6,2.7,0.2l0,0l2.2,2.7c0.7,0.8,0.6,2-0.2,2.7c-0.4,0.3-0.8,0.5-1.2,0.5
	C374.9,116.6,374.4,116.4,374,115.9 M413.2,123.7l-1.5-3.1c-0.3-0.6,0-1.3,0.6-1.6c0.6-0.3,1.3-0.1,1.6,0.5l0,0l1.5,3.1
	c0.3,0.6,0,1.3-0.6,1.6c-0.2,0.1-0.3,0.1-0.5,0.1C413.9,124.4,413.5,124.2,413.2,123.7 M381.2,125.1l-2-2.8
	c-0.6-0.8-0.4-1.9,0.4-2.5c0.8-0.6,1.9-0.4,2.5,0.4l0,0l2,2.8c0.5,0.8,0.4,1.9-0.5,2.4c-0.3,0.2-0.6,0.3-1,0.3
	C382.1,125.8,381.5,125.5,381.2,125.1 M417.5,133.7l-1.3-3.2c-0.2-0.6,0.1-1.2,0.7-1.5c0.6-0.2,1.2,0.1,1.5,0.6l0,0l1.2,3.2
	c0.2,0.6-0.1,1.2-0.7,1.4c-0.1,0.1-0.3,0.1-0.4,0.1C418.1,134.4,417.7,134.2,417.5,133.7 M387.5,134.8l-1.8-3
	c-0.5-0.8-0.2-1.8,0.6-2.3c0.8-0.5,1.8-0.2,2.3,0.5l0,0l1.7,3c0.4,0.8,0.2,1.8-0.6,2.2c-0.3,0.1-0.5,0.2-0.8,0.2
	C388.3,135.6,387.8,135.3,387.5,134.8 M420.8,144l-1-3.3c-0.2-0.6,0.2-1.1,0.7-1.3c0.6-0.2,1.1,0.2,1.3,0.7v0l0.9,3.3
	c0.1,0.6-0.2,1.1-0.7,1.3c-0.1,0-0.2,0-0.3,0C421.4,144.8,421,144.5,420.8,144 M392.9,145.1l-1.5-3.1c-0.4-0.8-0.1-1.6,0.7-2
	c0.8-0.4,1.7,0,2,0.7l0,0l1.4,3.2c0.3,0.7,0,1.6-0.7,1.9c-0.2,0.1-0.4,0.1-0.6,0.1C393.6,146,393.1,145.7,392.9,145.1 M423.3,154.6
	l-0.7-3.4c-0.1-0.5,0.2-1,0.8-1.1c0.5-0.1,1,0.2,1.1,0.8v0l0.6,3.4c0.1,0.5-0.2,1-0.8,1.1h-0.2C423.7,155.4,423.3,155.1,423.3,154.6
	 M397.3,155.9l-1.2-3.2c-0.3-0.7,0.1-1.5,0.8-1.8c0.7-0.3,1.5,0.1,1.8,0.8l0,0l1.1,3.3c0.2,0.7-0.1,1.5-0.8,1.7
	c-0.1,0.1-0.3,0.1-0.4,0.1C398,156.8,397.5,156.4,397.3,155.9 M424.7,165.4l-0.4-3.4c0-0.5,0.3-0.9,0.8-1c0.5,0,0.9,0.3,1,0.8v0
	l0.3,3.4c0,0.5-0.3,0.9-0.8,0.9l-0.1,0C425.2,166.1,424.8,165.8,424.7,165.4 M400.7,167l-0.9-3.3c-0.2-0.7,0.2-1.3,0.9-1.5
	c0.7-0.2,1.3,0.2,1.5,0.9l0,0l0.8,3.4c0.2,0.6-0.2,1.3-0.9,1.4c-0.1,0-0.2,0-0.3,0C401.3,167.9,400.8,167.6,400.7,167 M425.3,176.2
	l-0.1-3.4c0-0.4,0.3-0.8,0.8-0.8c0.4,0,0.8,0.3,0.8,0.8v0l0,3.4c0,0.4-0.3,0.8-0.8,0.8C425.7,177,425.3,176.7,425.3,176.2
	 M403.1,178.5l-0.6-3.4c-0.1-0.6,0.3-1.2,0.9-1.3c0.6-0.1,1.2,0.3,1.3,0.9v0l0.5,3.4c0.1,0.6-0.3,1.1-0.9,1.2c0,0-0.1,0-0.2,0
	C403.6,179.3,403.2,179,403.1,178.5 M425.5,187.8c-0.4,0-0.6-0.4-0.6-0.7l0.2-3.4c0-0.4,0.4-0.7,0.7-0.7c0.4,0,0.7,0.4,0.7,0.7v0
	l-0.3,3.4C426.3,187.6,426,187.8,425.5,187.8L425.5,187.8z M404.4,190.1l-0.3-3.4c0-0.5,0.3-1,0.9-1c0.5,0,1,0.4,1,0.9l0,0l0.2,3.5
	c0,0.5-0.4,0.9-0.8,1h-0.1C404.9,190.9,404.5,190.5,404.4,190.1 M424.1,198.6c-0.3-0.1-0.5-0.4-0.5-0.7l0.5-3.4
	c0-0.3,0.4-0.6,0.7-0.5c0.3,0.1,0.6,0.4,0.5,0.7l-0.6,3.4C424.7,198.4,424.5,198.6,424.1,198.6L424.1,198.6z M405.5,202.5
	c-0.4,0-0.7-0.4-0.7-0.8v-3.5c0-0.4,0.4-0.8,0.8-0.8c0.5,0,0.8,0.4,0.8,0.8l0,0l-0.1,3.5C406.3,202.2,405.9,202.5,405.5,202.5
	L405.5,202.5z M421.8,209.2c-0.3-0.1-0.4-0.3-0.4-0.6l0.8-3.3c0.1-0.3,0.4-0.5,0.6-0.4c0.3,0.1,0.5,0.4,0.4,0.6h0l-0.8,3.3
	c-0.1,0.2-0.3,0.4-0.5,0.4C421.9,209.2,421.8,209.2,421.8,209.2 M404.6,214.1c-0.3,0-0.6-0.3-0.5-0.7l0.3-3.5c0-0.4,0.3-0.6,0.7-0.6
	c0.4,0,0.6,0.4,0.6,0.7v0l-0.4,3.4C405.3,213.9,405,214.1,404.6,214.1L404.6,214.1z M418.6,219.6c-0.2-0.1-0.3-0.3-0.3-0.5l1.1-3.3
	c0.1-0.2,0.3-0.4,0.6-0.3c0.2,0.1,0.4,0.3,0.3,0.5v0l-1.1,3.2c-0.1,0.2-0.2,0.3-0.4,0.3C418.7,219.6,418.6,219.6,418.6,219.6
	 M402.8,225.6c-0.3,0-0.4-0.3-0.4-0.5l0.6-3.4c0-0.3,0.3-0.5,0.6-0.4c0.3,0.1,0.5,0.3,0.4,0.6l0,0l-0.7,3.4
	C403.3,225.4,403.1,225.6,402.8,225.6L402.8,225.6z M414.6,229.7c-0.2-0.1-0.2-0.3-0.2-0.4l1.3-3.2c0.1-0.2,0.3-0.3,0.5-0.2
	c0.2,0.1,0.3,0.3,0.2,0.5v0l-1.4,3.1c0,0.1-0.2,0.2-0.3,0.2C414.7,229.7,414.6,229.7,414.6,229.7 M400,236.9
	c-0.2-0.1-0.3-0.2-0.2-0.4l0.9-3.4c0-0.2,0.3-0.3,0.5-0.2c0.2,0,0.3,0.2,0.3,0.5v0l-1,3.3C400.3,236.8,400.2,236.9,400,236.9
	L400,236.9z M409.8,239.4c-0.1-0.1-0.2-0.2-0.1-0.3l1.6-3c0.1-0.1,0.2-0.2,0.4-0.1c0.1,0.1,0.2,0.2,0.1,0.4h0l-1.6,3
	c0,0.1-0.1,0.1-0.2,0.1C409.8,239.4,409.8,239.4,409.8,239.4 M396.2,247.9c-0.1,0-0.1-0.1-0.1-0.2l1.2-3.3c0-0.1,0.2-0.2,0.3-0.1
	c0.1,0.1,0.2,0.2,0.1,0.3l-1.2,3.2C396.4,247.8,396.4,247.9,396.2,247.9L396.2,247.9z M404.2,248.8c-0.1-0.1-0.1-0.1,0-0.2l1.8-2.9
	c0.1-0.1,0.2-0.1,0.3-0.1c0.1,0.1,0.1,0.2,0.1,0.3h0l-1.8,2.9C404.4,248.8,404.4,248.8,404.2,248.8L404.2,248.8z M398,257.7
	L398,257.7l2-2.9c0,0,0.1,0,0.1,0c0,0,0.1,0.1,0,0.1L398,257.7L398,257.7L398,257.7z M391.6,258.5L391.6,258.5l1.4-3.2
	c0,0,0.1-0.1,0.1,0c0,0,0.1,0.1,0,0.1L391.6,258.5L391.6,258.5L391.6,258.5z M393.4,263.5L393.4,263.5L393.4,263.5l-1.1,1.3
	L393.4,263.5z"/>
<path class="st0" d="M284.1,76l-32.4,32.4c-1.3,1.4-0.4,3.6,1.5,3.6c65.1-1.1,119.2,37.2,136.3,89.3c1.2,3.6,5.3,2.6,5.3-1.1
	c-5.2-65.4-50.6-116.8-107.5-125.3c-0.2,0-0.4,0-0.6,0C285.8,74.9,284.8,75.3,284.1,76 M287.9,80.1l-1.7-0.3
	c-0.8-0.1-1.3-0.8-1.1-1.6c0.1-0.8,0.8-1.3,1.6-1.2h0l1.7,0.3c0.7,0.1,1.2,0.8,1.1,1.6c-0.1,0.7-0.7,1.1-1.3,1.1H287.9 M298.5,82.3
	l-3.3-0.8c-0.7-0.2-1.1-0.9-1-1.6c0.2-0.7,0.9-1.1,1.6-1h0l3.3,0.9c0.7,0.2,1.1,0.9,0.9,1.6c-0.1,0.6-0.7,1-1.2,1
	C298.7,82.3,298.6,82.3,298.5,82.3 M308.9,85.4l-3.2-1.1c-0.6-0.2-1-0.9-0.8-1.6c0.2-0.6,0.9-1,1.5-0.8h0l3.2,1.1
	c0.6,0.2,1,0.9,0.7,1.5c-0.2,0.5-0.6,0.8-1.1,0.8C309.1,85.5,309,85.5,308.9,85.4 M318.9,89.5l-3.1-1.4c-0.6-0.3-0.8-0.9-0.6-1.5
	c0.3-0.6,0.9-0.8,1.5-0.6l0,0l3.1,1.4c0.6,0.3,0.8,0.9,0.5,1.5c-0.2,0.4-0.6,0.7-1,0.7C319.2,89.6,319.1,89.5,318.9,89.5
	 M328.6,94.4l-3-1.6c-0.5-0.3-0.7-0.9-0.4-1.4c0.3-0.5,0.9-0.7,1.4-0.4h0l3,1.7c0.5,0.3,0.7,0.9,0.4,1.4c-0.2,0.3-0.5,0.5-0.9,0.5
	C328.9,94.5,328.7,94.5,328.6,94.4 M337.8,100.2l-2.8-1.9c-0.4-0.3-0.6-0.9-0.3-1.3c0.3-0.4,0.9-0.6,1.3-0.3l0,0l2.8,1.9
	c0.4,0.3,0.5,0.9,0.2,1.3c-0.2,0.2-0.5,0.4-0.8,0.4C338.1,100.3,337.9,100.3,337.8,100.2 M346.4,106.7l-2.7-2.1
	c-0.4-0.3-0.4-0.9-0.1-1.2c0.3-0.4,0.9-0.5,1.2-0.1v0l2.6,2.2c0.4,0.3,0.4,0.8,0.1,1.2c-0.2,0.2-0.4,0.3-0.7,0.3
	C346.8,106.9,346.6,106.9,346.4,106.7 M258.5,105.2c0-1.1,0.9-2.1,2-2.1h0l3.5,0c1.1,0,2,0.9,2,2.1c0,1.1-0.9,2-2,2l-3.5,0h0
	C259.4,107.2,258.5,106.3,258.5,105.2 M275.6,107.6l-3.5-0.2c-1.1-0.1-1.9-1-1.8-2.1c0.1-1.1,1-1.9,2.1-1.8l0,0l3.4,0.3
	c1,0.1,1.8,1,1.7,2.1c-0.1,1-0.9,1.7-1.9,1.7H275.6 M287.1,109l-3.4-0.5c-1-0.1-1.6-1.1-1.5-2c0.2-1,1.1-1.6,2.1-1.5l0,0l3.4,0.6
	c1,0.2,1.6,1.1,1.4,2c-0.2,0.9-0.9,1.5-1.7,1.5C287.3,109.1,287.2,109,287.1,109 M298.5,111.5l-3.4-0.9c-0.9-0.2-1.4-1.1-1.2-2
	c0.2-0.9,1.1-1.4,2-1.2l0,0l3.3,0.9c0.9,0.2,1.4,1.1,1.1,2c-0.2,0.7-0.8,1.2-1.6,1.2C298.8,111.5,298.6,111.5,298.5,111.5
	 M354.5,114l-2.5-2.4c-0.3-0.3-0.3-0.8,0-1.1c0.3-0.3,0.8-0.3,1.1,0l0,0l2.4,2.4c0.3,0.3,0.3,0.8,0,1.1c-0.2,0.2-0.3,0.2-0.5,0.2
	C354.9,114.2,354.7,114.2,354.5,114 M309.6,115l-3.3-1.1c-0.8-0.3-1.2-1.1-0.9-1.9c0.3-0.8,1.1-1.2,1.9-0.9l0,0l3.2,1.2
	c0.8,0.3,1.1,1.1,0.9,1.9c-0.2,0.6-0.8,1-1.4,1C309.9,115,309.7,115,309.6,115 M320.3,119.4l-3.1-1.4c-0.7-0.3-1-1.1-0.7-1.8
	c0.3-0.7,1.1-1,1.8-0.7l0,0l3.1,1.5c0.7,0.3,0.9,1.1,0.6,1.8c-0.2,0.5-0.7,0.7-1.2,0.7C320.7,119.6,320.5,119.5,320.3,119.4
	 M361.9,122l-2.3-2.6c-0.3-0.3-0.2-0.7,0.1-1c0.3-0.3,0.7-0.2,1,0.1l0,0l2.2,2.6c0.2,0.3,0.2,0.7-0.1,1c-0.1,0.1-0.3,0.2-0.4,0.2
	C362.3,122.2,362.1,122.1,361.9,122 M330.6,124.9l-3-1.7c-0.6-0.3-0.8-1.1-0.5-1.7c0.3-0.6,1.1-0.8,1.7-0.4l0,0l3,1.8
	c0.6,0.3,0.7,1.1,0.4,1.6c-0.2,0.4-0.6,0.6-1,0.6C331,125.1,330.8,125,330.6,124.9 M368.6,130.5l-2-2.8c-0.2-0.3-0.1-0.7,0.1-0.9
	c0.3-0.2,0.7-0.1,0.9,0.1l0,0l2,2.8c0.2,0.3,0.1,0.6-0.1,0.8c-0.1,0.1-0.2,0.1-0.3,0.1C369,130.8,368.8,130.7,368.6,130.5
	 M340.4,131.3l-2.8-2c-0.5-0.3-0.6-1-0.3-1.5c0.3-0.5,1-0.6,1.5-0.3l0,0l2.8,2.1c0.5,0.3,0.6,1,0.2,1.5c-0.2,0.3-0.5,0.4-0.8,0.4
	C340.8,131.5,340.6,131.4,340.4,131.3 M349.5,138.5l-2.6-2.2c-0.4-0.3-0.5-0.9-0.1-1.3c0.3-0.4,0.9-0.5,1.3-0.1l0,0l2.6,2.3
	c0.4,0.3,0.4,0.9,0.1,1.3c-0.2,0.2-0.4,0.3-0.7,0.3C349.9,138.7,349.7,138.7,349.5,138.5 M374.6,139.7l-1.8-2.9
	c-0.2-0.2-0.1-0.6,0.2-0.7c0.3-0.1,0.6-0.1,0.7,0.2h0l1.7,2.9c0.1,0.2,0.1,0.5-0.2,0.7c-0.1,0.1-0.2,0.1-0.3,0.1
	C374.9,139.9,374.7,139.8,374.6,139.7 M358,146.6l-2.4-2.5c-0.3-0.3-0.3-0.8,0-1.1c0.3-0.3,0.8-0.3,1.1,0l0,0l2.4,2.5
	c0.3,0.3,0.3,0.8,0,1.1c-0.1,0.1-0.3,0.2-0.5,0.2C358.4,146.8,358.2,146.7,358,146.6 M379.9,149.2l-1.6-3c-0.1-0.2,0-0.5,0.2-0.6
	c0.2-0.1,0.5,0,0.6,0.2l0,0l1.5,3.1c0.1,0.2,0,0.5-0.2,0.5c-0.1,0-0.1,0-0.2,0C380.1,149.4,379.9,149.4,379.9,149.2 M365.8,155.3
	l-2.2-2.7c-0.2-0.3-0.2-0.7,0.1-0.9c0.3-0.2,0.7-0.2,0.9,0.1l0,0l2.2,2.7c0.2,0.3,0.2,0.7-0.1,0.9c-0.1,0.1-0.3,0.1-0.4,0.1
	C366.1,155.5,365.9,155.5,365.8,155.3 M384.3,159.2L383,156c-0.1-0.2,0-0.4,0.2-0.5c0.2-0.1,0.4,0,0.5,0.2v0l1.3,3.2
	c0.1,0.2,0,0.4-0.2,0.4c0,0-0.1,0-0.1,0C384.4,159.4,384.3,159.3,384.3,159.2 M372.8,164.7l-2-2.8c-0.2-0.2-0.1-0.6,0.1-0.7
	c0.2-0.2,0.6-0.1,0.7,0.1l0,0l1.9,2.9c0.2,0.2,0.1,0.5-0.1,0.7c-0.1,0.1-0.2,0.1-0.3,0.1C373,164.9,372.9,164.8,372.8,164.7
	 M387.9,169.5l-1-3.3c0-0.1,0-0.3,0.2-0.3c0.1,0,0.3,0,0.3,0.2l1,3.3c0,0.1,0,0.3-0.2,0.3l-0.1,0C388,169.7,387.9,169.6,387.9,169.5
	 M379,174.7l-1.7-3c-0.1-0.2,0-0.4,0.1-0.5c0.2-0.1,0.4,0,0.5,0.2h0l1.7,3c0.1,0.1,0,0.4-0.1,0.5c0,0-0.1,0-0.2,0
	C379.2,174.8,379.1,174.8,379,174.7 M390.7,180.1l-0.8-3.3c0-0.1,0-0.2,0.1-0.2c0.1,0,0.2,0,0.2,0.1v0l0.7,3.3c0,0.1,0,0.2-0.1,0.2
	h0C390.8,180.2,390.7,180.1,390.7,180.1 M384.3,185.1l-1.5-3.1c-0.1-0.1,0-0.3,0.1-0.3c0.1,0,0.3,0,0.3,0.1l1.4,3.2
	c0,0.1,0,0.2-0.1,0.3l-0.1,0C384.4,185.2,384.4,185.2,384.3,185.1 M392.7,190.8l-0.5-3.4c0-0.1,0-0.1,0.1-0.1c0,0,0.1,0,0.1,0.1
	l0.5,3.4C392.9,190.8,392.8,190.9,392.7,190.8L392.7,190.8C392.8,190.9,392.7,190.8,392.7,190.8 M388.8,196l-1.2-3.2
	c0,0,0-0.1,0.1-0.1c0,0,0.1,0,0.1,0.1L388.8,196L388.8,196L388.8,196L388.8,196z M393.7,198.3L393.7,198.3L393.7,198.3l0.2,1.7
	L393.7,198.3z"/>
<path class="st0" d="M185.3,139.9c-1,0.7-1.5,1.9-1.5,3.1v45.8c0,1.9,2.3,2.8,3.6,1.4c45.2-46.8,110.6-57.9,159.5-33.3
	c3.4,1.8,5.6-1.9,3-4.5c-27.7-23.6-61.1-35.4-93.2-35.4C230.9,117.1,205.9,124.7,185.3,139.9 M256.2,119.4c0-0.4,0.3-0.8,0.8-0.8h0
	l3.4,0c0.4,0,0.8,0.3,0.8,0.8c0,0.4-0.3,0.8-0.7,0.8l-3.4,0.1h0C256.6,120.1,256.2,119.8,256.2,119.4 M271.3,120.4l-3.4-0.2
	c-0.4,0-0.7-0.4-0.7-0.7c0-0.4,0.4-0.7,0.7-0.7h0l3.4,0.3c0.4,0,0.7,0.4,0.6,0.7C272,120.2,271.7,120.4,271.3,120.4L271.3,120.4z
	 M245.2,120.2c-0.1-0.5,0.3-0.9,0.8-1h0l3.4-0.3c0.5,0,0.9,0.3,0.9,0.8c0,0.5-0.3,0.9-0.8,0.9l-3.4,0.4h-0.1
	C245.7,121,245.3,120.6,245.2,120.2 M282.1,121.7l-3.4-0.5c-0.3,0-0.6-0.4-0.5-0.7c0-0.3,0.4-0.6,0.7-0.5h0l3.4,0.5
	c0.3,0.1,0.5,0.4,0.5,0.7C282.8,121.5,282.5,121.8,282.1,121.7L282.1,121.7z M234.3,122c-0.1-0.5,0.2-1,0.8-1.1l0,0l3.4-0.6
	c0.5-0.1,1,0.2,1.1,0.7c0.1,0.5-0.2,1-0.7,1.1l-3.4,0.7c-0.1,0-0.1,0-0.2,0C234.8,122.8,234.4,122.5,234.3,122 M292.8,123.9
	l-3.3-0.8c-0.3-0.1-0.5-0.4-0.4-0.6c0.1-0.3,0.3-0.5,0.6-0.4h0l3.3,0.8c0.3,0.1,0.4,0.4,0.4,0.6c-0.1,0.2-0.3,0.4-0.5,0.4
	C292.9,124,292.9,124,292.8,123.9 M223.7,124.8c-0.2-0.6,0.1-1.1,0.7-1.3l0,0l3.3-0.9c0.5-0.2,1.1,0.2,1.3,0.7
	c0.1,0.5-0.2,1.1-0.7,1.3l-3.3,1c-0.1,0-0.2,0-0.3,0C224.2,125.5,223.8,125.2,223.7,124.8 M303.3,127L300,126
	c-0.2-0.1-0.4-0.3-0.3-0.6c0.1-0.2,0.3-0.4,0.6-0.3h0l3.2,1.1c0.2,0.1,0.3,0.3,0.3,0.5c0,0.2-0.2,0.3-0.4,0.3
	C303.4,127.1,303.3,127.1,303.3,127 M213.3,128.5c-0.2-0.6,0.1-1.3,0.6-1.5h0l3.2-1.2c0.6-0.2,1.2,0.1,1.4,0.7
	c0.2,0.6-0.1,1.2-0.6,1.4l-3.2,1.2c-0.1,0.1-0.3,0.1-0.4,0.1C213.9,129.2,213.4,128.9,213.3,128.5 M313.5,131l-3.2-1.3
	c-0.2-0.1-0.3-0.3-0.2-0.5c0.1-0.2,0.3-0.3,0.5-0.2h0l3.1,1.4c0.2,0.1,0.2,0.3,0.2,0.4c-0.1,0.1-0.2,0.2-0.3,0.2
	C313.5,131,313.5,131,313.5,131 M203.3,133.1c-0.3-0.6,0-1.3,0.6-1.6h0l3.1-1.5c0.6-0.3,1.3,0,1.6,0.6c0.3,0.6,0,1.3-0.5,1.6
	l-3.1,1.5c-0.2,0.1-0.4,0.1-0.5,0.1C203.9,133.8,203.5,133.5,203.3,133.1 M323.3,135.7l-3-1.6c-0.1-0.1-0.2-0.2-0.1-0.4
	c0.1-0.1,0.2-0.2,0.4-0.1h0l3,1.6c0.1,0,0.2,0.2,0.1,0.3c0,0.1-0.1,0.1-0.2,0.1C323.4,135.7,323.3,135.7,323.3,135.7 M193.7,138.6
	c-0.4-0.6-0.2-1.4,0.4-1.8l0,0l2.9-1.7c0.6-0.4,1.4-0.1,1.8,0.5c0.4,0.6,0.2,1.4-0.4,1.7l-2.9,1.8c-0.2,0.1-0.5,0.2-0.7,0.2
	C194.4,139.2,193.9,139,193.7,138.6 M282.5,140.6c-0.4,0-0.8-0.4-0.8-0.8c0-0.4,0.4-0.8,0.8-0.8h0l3.5,0.1c0.4,0,0.8,0.4,0.7,0.8
	c0,0.4-0.4,0.8-0.8,0.7H282.5z M332.8,141.2l-2.9-1.8c-0.1-0.1-0.1-0.2-0.1-0.3c0.1-0.1,0.2-0.1,0.3-0.1h0l2.9,1.8
	c0.1,0.1,0.1,0.2,0,0.2C332.9,141.2,332.9,141.2,332.8,141.2L332.8,141.2z M269.8,140.4c0-0.5,0.3-1,0.9-1h0l3.4-0.2
	c0.5,0,0.9,0.3,1,0.9c0,0.5-0.3,0.9-0.8,1l-3.4,0.3h-0.1C270.3,141.2,269.8,140.9,269.8,140.4 M297.6,141.3l-3.4-0.3
	c-0.4,0-0.6-0.4-0.6-0.7c0-0.4,0.4-0.6,0.7-0.6h0l3.4,0.4c0.3,0,0.6,0.3,0.5,0.7C298.3,141.1,298,141.3,297.6,141.3L297.6,141.3z
	 M258,142c-0.1-0.6,0.3-1.2,0.9-1.3h0l3.4-0.5c0.6-0.1,1.1,0.3,1.2,0.9c0.1,0.5-0.3,1.1-0.9,1.2l-3.4,0.6c-0.1,0-0.1,0-0.2,0
	C258.6,142.9,258.1,142.5,258,142 M186,143.9c-0.4-0.6-0.3-1.5,0.3-1.9l0,0l1.4-1c0.6-0.4,1.5-0.3,1.9,0.3c0.4,0.6,0.3,1.5-0.3,1.9
	l-1.4,1c-0.2,0.2-0.5,0.3-0.8,0.3C186.7,144.4,186.3,144.2,186,143.9 M309.2,143l-3.4-0.6c-0.3,0-0.5-0.3-0.4-0.6
	c0-0.3,0.3-0.5,0.6-0.4h0l3.4,0.7c0.3,0,0.4,0.3,0.4,0.6C309.7,142.8,309.5,143,309.2,143L309.2,143z M246.4,144.7
	c-0.2-0.7,0.2-1.3,0.9-1.5l0,0l3.4-0.8c0.6-0.2,1.3,0.2,1.4,0.9c0.1,0.6-0.2,1.3-0.8,1.4l-3.3,0.9c-0.1,0-0.2,0-0.3,0
	C247.1,145.6,246.6,145.3,246.4,144.7 M320.7,145.6l-3.3-0.9c-0.2-0.1-0.3-0.3-0.3-0.5c0.1-0.2,0.3-0.3,0.5-0.3h0l3.3,1
	c0.2,0,0.3,0.3,0.2,0.4C321,145.6,320.9,145.7,320.7,145.6L320.7,145.6z M341.8,147.3l-2.8-2c0,0,0-0.1,0-0.1c0,0,0.1-0.1,0.1,0l0,0
	l2.7,2l0,0.1L341.8,147.3L341.8,147.3z M235.1,148.5c-0.3-0.7,0.1-1.5,0.8-1.8l0,0l3.3-1.1c0.7-0.2,1.4,0.1,1.7,0.8
	c0.2,0.7-0.1,1.4-0.8,1.7l-3.2,1.2c-0.2,0.1-0.3,0.1-0.5,0.1C235.9,149.4,235.3,149,235.1,148.5 M331.8,149.3l-3.3-1.2
	c-0.1,0-0.2-0.2-0.1-0.3c0-0.1,0.2-0.2,0.3-0.2h0l3.2,1.3c0.1,0,0.2,0.1,0.1,0.2C332.1,149.2,332,149.3,331.8,149.3L331.8,149.3z
	 M224.2,153.3c-0.4-0.7,0-1.6,0.7-2l0,0l3.1-1.4c0.7-0.3,1.6,0,2,0.7c0.3,0.7,0,1.6-0.7,1.9l-3.1,1.5c-0.2,0.1-0.4,0.1-0.7,0.1
	C225,154.2,224.5,153.8,224.2,153.3 M347.7,152L347.7,152L347.7,152l1.3,1.1L347.7,152z M342.7,153.8l-3.2-1.4c0,0-0.1-0.1,0-0.1
	c0-0.1,0.1-0.1,0.1-0.1h0L342.7,153.8L342.7,153.8L342.7,153.8L342.7,153.8z M213.8,159.1c-0.5-0.8-0.2-1.8,0.6-2.3l0,0l3-1.7
	c0.8-0.5,1.8-0.2,2.2,0.6c0.4,0.8,0.2,1.7-0.6,2.2l-3,1.8c-0.3,0.2-0.6,0.2-0.8,0.2C214.7,159.9,214.1,159.6,213.8,159.1 M204,165.8
	c-0.6-0.8-0.4-1.9,0.4-2.5l0,0l2.9-2c0.8-0.5,1.9-0.4,2.4,0.4c0.5,0.8,0.4,1.9-0.4,2.4l-2.8,2c-0.3,0.2-0.7,0.3-1,0.3
	C204.9,166.6,204.4,166.3,204,165.8 M194.8,173.4c-0.7-0.8-0.6-2,0.2-2.7l0,0l2.7-2.2c0.8-0.7,2-0.5,2.7,0.3
	c0.7,0.8,0.6,1.9-0.2,2.6l-2.6,2.3c-0.4,0.3-0.8,0.5-1.3,0.5C195.7,174.1,195.2,173.9,194.8,173.4 M186.3,181.8
	c-0.8-0.8-0.9-2.1-0.1-2.9l0,0l2.5-2.4c0.8-0.8,2.1-0.8,2.9,0c0.8,0.8,0.8,2,0,2.9l-2.4,2.5c-0.4,0.4-1,0.6-1.5,0.6
	C187.2,182.3,186.7,182.2,186.3,181.8"/>
<path class="st0" d="M159.2,258c-0.2,1.2,0.2,2.4,1.1,3.3l32.4,32.4c1.3,1.3,3.6,0.4,3.6-1.5c-1.1-65.1,37.2-119.2,89.3-136.3
	c3.7-1.2,2.6-5.3-1.1-5.3C219,155.8,167.6,201.2,159.2,258 M282.5,151.7L282.5,151.7l1.7-0.1L282.5,151.7L282.5,151.7z M271.5,153.1
	c0-0.1,0-0.1,0.1-0.1l3.4-0.5c0,0,0.1,0,0.1,0.1c0,0,0,0.1-0.1,0.1l-3.4,0.5L271.5,153.1C271.6,153.2,271.6,153.1,271.5,153.1
	 M260.7,155.3c0-0.1,0-0.2,0.1-0.2l3.3-0.7c0.1,0,0.2,0,0.2,0.1c0,0.1,0,0.2-0.1,0.2l-3.3,0.8l0,0
	C260.8,155.5,260.8,155.4,260.7,155.3 M276.9,157.7c0-0.1,0-0.1,0-0.1l3.3-1.1l0.1,0l0,0.1l-3.2,1.2L276.9,157.7
	C276.9,157.8,276.9,157.8,276.9,157.7 M250.1,158.3c0-0.1,0-0.3,0.2-0.3l0,0l3.3-1c0.1,0,0.3,0,0.3,0.2c0,0.1,0,0.3-0.2,0.3
	l-3.3,1.1h-0.1C250.3,158.5,250.2,158.5,250.1,158.3 M239.8,162.2c-0.1-0.2,0-0.4,0.2-0.5l3.2-1.2c0.2-0.1,0.4,0,0.4,0.2
	c0.1,0.2,0,0.4-0.2,0.4l-3.2,1.3c0,0-0.1,0-0.1,0C240,162.4,239.8,162.3,239.8,162.2 M265.9,162.4c-0.1-0.1,0-0.3,0.1-0.3h0l3.2-1.4
	c0.1,0,0.2,0,0.3,0.1c0,0.1,0,0.2-0.1,0.3l-3.1,1.5l-0.1,0C266,162.5,265.9,162.5,265.9,162.4 M229.8,166.9c-0.1-0.2,0-0.5,0.2-0.6
	h0l3.1-1.5c0.2-0.1,0.5,0,0.6,0.2c0.1,0.2,0,0.5-0.2,0.5l-3.1,1.6c-0.1,0-0.1,0.1-0.2,0.1C230,167.1,229.9,167,229.8,166.9
	 M255.4,168c-0.1-0.2,0-0.4,0.1-0.5h0l3-1.7c0.2-0.1,0.4,0,0.5,0.1c0.1,0.2,0,0.4-0.1,0.4l-3,1.7c-0.1,0-0.1,0-0.2,0
	C255.6,168.1,255.5,168.1,255.4,168 M220.2,172.4c-0.2-0.3-0.1-0.6,0.2-0.7h0l2.9-1.7c0.2-0.1,0.5-0.1,0.7,0.2
	c0.1,0.2,0.1,0.5-0.2,0.7l-2.9,1.8c-0.1,0-0.2,0.1-0.3,0.1C220.5,172.6,220.3,172.5,220.2,172.4 M245.4,174.4
	c-0.2-0.2-0.1-0.5,0.1-0.7h0l2.9-1.9c0.2-0.2,0.5-0.1,0.7,0.1c0.1,0.2,0.1,0.5-0.1,0.6l-2.8,2c-0.1,0.1-0.2,0.1-0.3,0.1
	C245.6,174.6,245.5,174.6,245.4,174.4 M211.1,178.6c-0.2-0.3-0.1-0.7,0.1-0.9h0l2.8-2c0.3-0.2,0.6-0.1,0.8,0.1
	c0.2,0.3,0.1,0.6-0.1,0.8l-2.8,2c-0.1,0.1-0.2,0.1-0.4,0.1C211.4,178.9,211.2,178.8,211.1,178.6 M235.9,181.7
	c-0.2-0.3-0.2-0.7,0.1-0.9l0,0l2.7-2.1c0.3-0.2,0.6-0.2,0.9,0.1c0.2,0.3,0.2,0.6-0.1,0.9l-2.7,2.2c-0.1,0.1-0.3,0.1-0.4,0.1
	C236.3,181.9,236.1,181.8,235.9,181.7 M202.6,185.6c-0.3-0.3-0.2-0.7,0.1-1l0,0l2.6-2.2c0.3-0.2,0.7-0.2,1,0.1
	c0.2,0.3,0.2,0.7-0.1,1l-2.6,2.3c-0.1,0.1-0.3,0.2-0.5,0.2C203,185.9,202.8,185.8,202.6,185.6 M227.2,189.8c-0.3-0.3-0.3-0.8,0-1.1
	l0,0l2.5-2.4c0.3-0.3,0.8-0.3,1.1,0c0.3,0.3,0.3,0.8,0,1.1l-2.5,2.4c-0.1,0.2-0.4,0.2-0.6,0.2S227.4,189.9,227.2,189.8 M194.7,193.3
	c-0.3-0.3-0.3-0.8,0-1.1h0l2.4-2.4c0.3-0.3,0.8-0.3,1.1,0c0.3,0.3,0.3,0.8,0,1.1l-2.4,2.5c-0.2,0.2-0.4,0.2-0.6,0.2
	C195.1,193.6,194.9,193.5,194.7,193.3 M219.2,198.6c-0.4-0.3-0.4-1-0.1-1.3l0,0l2.3-2.6c0.3-0.4,0.9-0.4,1.3-0.1
	c0.4,0.3,0.4,0.9,0.1,1.3l-2.2,2.7c-0.2,0.2-0.5,0.3-0.7,0.3C219.6,198.8,219.4,198.7,219.2,198.6 M187.6,201.7
	c-0.4-0.3-0.4-0.9-0.1-1.2v0l2.2-2.6c0.3-0.4,0.8-0.4,1.2-0.1c0.4,0.3,0.4,0.8,0.1,1.2l-2.1,2.7c-0.2,0.2-0.4,0.3-0.7,0.3
	C187.9,201.9,187.7,201.9,187.6,201.7 M212,208.1c-0.5-0.3-0.6-1-0.3-1.5l0,0l2-2.8c0.3-0.5,1-0.6,1.5-0.2c0.5,0.3,0.6,1,0.2,1.4
	l-2,2.8c-0.2,0.3-0.6,0.5-0.9,0.5C212.4,208.3,212.2,208.2,212,208.1 M181.1,210.7c-0.4-0.3-0.6-0.9-0.3-1.3l0,0l1.9-2.8
	c0.3-0.4,0.9-0.5,1.3-0.2c0.4,0.3,0.5,0.9,0.2,1.3l-1.9,2.8c-0.2,0.3-0.5,0.4-0.8,0.4C181.5,210.9,181.3,210.8,181.1,210.7
	 M205.7,218.2c-0.6-0.3-0.8-1.1-0.5-1.7l0,0l1.8-3c0.3-0.6,1.1-0.7,1.6-0.4c0.6,0.3,0.7,1.1,0.4,1.6l-1.7,3
	c-0.2,0.4-0.6,0.6-1.1,0.6C206.1,218.4,205.9,218.3,205.7,218.2 M175.5,220.2c-0.5-0.3-0.7-0.9-0.4-1.4l0,0l1.7-2.9
	c0.3-0.5,0.9-0.7,1.4-0.4c0.5,0.3,0.7,0.9,0.4,1.4l-1.6,3c-0.2,0.3-0.6,0.5-0.9,0.5C175.9,220.3,175.7,220.3,175.5,220.2
	 M200.4,228.9c-0.7-0.3-1-1.1-0.7-1.8l0,0l1.5-3.1c0.3-0.7,1.1-0.9,1.8-0.6c0.6,0.3,0.9,1.1,0.6,1.7l-1.4,3.1
	c-0.2,0.5-0.7,0.8-1.2,0.8C200.8,229,200.6,228.9,200.4,228.9 M170.8,230.2c-0.6-0.3-0.8-0.9-0.6-1.5l0,0l1.4-3.1
	c0.3-0.6,0.9-0.8,1.5-0.5c0.6,0.2,0.8,0.9,0.6,1.5l-1.4,3.1c-0.2,0.4-0.6,0.7-1,0.7C171.1,230.3,171,230.2,170.8,230.2 M196.1,240
	c-0.8-0.3-1.2-1.1-0.9-1.9l0,0l1.2-3.2c0.3-0.8,1.1-1.1,1.9-0.9c0.8,0.3,1.1,1.1,0.9,1.8L198,239c-0.2,0.6-0.8,1-1.4,1
	C196.5,240.1,196.3,240,196.1,240 M167,240.5c-0.6-0.2-1-0.9-0.8-1.5l0,0l1.1-3.2c0.2-0.6,0.9-1,1.5-0.7c0.6,0.2,0.9,0.9,0.7,1.5
	l-1.1,3.2c-0.2,0.5-0.7,0.8-1.2,0.8C167.3,240.6,167.1,240.5,167,240.5 M192.9,251.4c-0.9-0.2-1.4-1.1-1.2-2l0,0l0.9-3.3
	c0.2-0.9,1.1-1.4,2-1.1c0.8,0.2,1.4,1.1,1.1,1.9l-0.8,3.4c-0.2,0.8-0.9,1.3-1.6,1.3C193.1,251.5,193,251.5,192.9,251.4 M164.1,251.1
	c-0.7-0.1-1.1-0.9-1-1.6l0,0l0.9-3.3c0.2-0.7,0.9-1.1,1.6-0.9c0.7,0.2,1.1,0.9,0.9,1.5l-0.8,3.3c-0.1,0.6-0.7,1-1.3,1
	C164.3,251.2,164.2,251.2,164.1,251.1 M162.4,260.3c-0.8-0.1-1.3-0.8-1.2-1.6l0,0l0.3-1.7c0.1-0.7,0.8-1.3,1.6-1.1
	c0.7,0.1,1.2,0.8,1.1,1.6l-0.3,1.7c-0.1,0.7-0.7,1.2-1.4,1.2C162.6,260.3,162.5,260.3,162.4,260.3 M190.7,263.1
	c-1-0.1-1.7-1.1-1.5-2l0,0l0.6-3.4c0.2-1,1.1-1.6,2-1.4c0.9,0.1,1.6,1,1.4,2l-0.5,3.4c-0.1,0.9-0.9,1.5-1.8,1.5
	C190.9,263.2,190.8,263.1,190.7,263.1 M189.5,275c-1.1-0.1-1.9-1-1.8-2.1v0l0.3-3.4c0.1-1,1-1.8,2.1-1.7c1,0.1,1.8,1,1.7,2l-0.2,3.4
	c-0.1,1-0.9,1.8-1.9,1.8H189.5 M187.3,284.9L187.3,284.9l0-3.5c0-1.1,0.9-2,2-2c1.1,0,2,0.9,2,2l0.1,3.4c0,1.2-0.9,2.1-2,2.1h0
	C188.3,286.9,187.3,286,187.3,284.9"/>
<path class="st0" d="M236.7,195.5c-42.6,50-46.7,118.4-12.6,164.6c0.7,1,1.9,1.5,3.1,1.5H273c1.9,0,2.8-2.3,1.5-3.6
	c-46.8-45.2-57.9-110.6-33.3-159.5c1.2-2.4-0.1-4.1-2-4.1C238.4,194.3,237.5,194.7,236.7,195.5 M236.2,197.6L236.2,197.6l1.1-1.3
	L236.2,197.6L236.2,197.6L236.2,197.6z M236.5,205.9c0,0-0.1-0.1,0-0.1h0l1.5-3.1l0.1,0l0,0.1l-1.4,3.2
	C236.6,205.9,236.5,205.9,236.5,205.9L236.5,205.9z M229.4,206.4c0,0-0.1-0.1,0-0.1l2-2.8h0.1l0,0.1l-2,2.8L229.4,206.4L229.4,206.4
	z M223.4,215.6c-0.1-0.1-0.1-0.2-0.1-0.3l1.8-2.9c0-0.1,0.1-0.1,0.2-0.1c0.1,0.1,0.1,0.2,0,0.2l-1.8,2.9
	C223.6,215.6,223.5,215.6,223.4,215.6L223.4,215.6z M232,216.9c-0.1-0.1-0.2-0.2-0.1-0.3l1.2-3.2c0-0.1,0.2-0.2,0.2-0.1
	c0.1,0,0.2,0.2,0.1,0.2l-1.2,3.3C232.3,216.9,232.2,216.9,232,216.9L232,216.9z M218,225.2c-0.1,0-0.2-0.2-0.1-0.4l1.6-3
	c0.1-0.1,0.2-0.2,0.3-0.1c0.1,0.1,0.2,0.2,0.1,0.3l-1.6,3.1c0,0.1-0.1,0.1-0.2,0.1C218.1,225.3,218,225.2,218,225.2 M228.5,228.3
	c-0.2-0.1-0.3-0.3-0.3-0.5h0l1-3.3c0-0.2,0.2-0.3,0.4-0.2c0.2,0,0.3,0.2,0.2,0.4l-0.9,3.4C228.9,228.2,228.8,228.3,228.5,228.3
	L228.5,228.3z M213.4,235.3c-0.2-0.1-0.3-0.3-0.2-0.5l1.4-3.2c0.1-0.1,0.3-0.2,0.4-0.2c0.2,0.1,0.2,0.3,0.2,0.4l-1.3,3.2
	c-0.1,0.1-0.2,0.2-0.3,0.2C213.5,235.3,213.4,235.3,213.4,235.3 M226,239.9c-0.3,0-0.5-0.3-0.4-0.6v0l0.7-3.4c0-0.3,0.3-0.4,0.6-0.4
	c0.3,0.1,0.4,0.3,0.4,0.5l-0.6,3.4C226.6,239.8,226.3,240,226,239.9L226,239.9z M209.6,245.6c-0.2-0.1-0.4-0.3-0.3-0.6l0,0l1.1-3.2
	c0.1-0.2,0.3-0.3,0.5-0.3c0.2,0.1,0.3,0.3,0.3,0.5l-1.1,3.2c-0.1,0.2-0.2,0.3-0.4,0.3C209.7,245.7,209.7,245.6,209.6,245.6
	 M224.5,251.8c-0.4,0-0.6-0.4-0.6-0.7v0l0.4-3.4c0-0.3,0.3-0.6,0.7-0.5c0.3,0,0.6,0.3,0.5,0.7l-0.3,3.4
	C225.2,251.5,224.9,251.8,224.5,251.8L224.5,251.8z M206.7,256.3c-0.3,0-0.5-0.4-0.4-0.6l0.8-3.3c0.1-0.3,0.3-0.4,0.6-0.4
	c0.3,0.1,0.4,0.3,0.4,0.6l-0.8,3.3c-0.1,0.2-0.3,0.4-0.5,0.4C206.8,256.3,206.8,256.3,206.7,256.3 M224,263.7
	c-0.4,0-0.8-0.4-0.8-0.8v0l0.1-3.4c0-0.4,0.4-0.8,0.8-0.7s0.7,0.3,0.7,0.8l0,3.5C224.8,263.3,224.5,263.7,224,263.7L224,263.7z
	 M204.7,267.1c-0.3,0-0.6-0.4-0.5-0.7l0.6-3.4c0.1-0.3,0.4-0.5,0.7-0.5c0.3,0,0.5,0.4,0.5,0.7l-0.5,3.4
	C205.4,266.9,205.1,267.1,204.7,267.1L204.7,267.1z M223.6,274.7L223.6,274.7l-0.2-3.5c0-0.5,0.3-0.9,0.8-1c0.5,0,0.9,0.3,0.9,0.8
	l0.3,3.4c0,0.5-0.3,1-0.9,1h-0.1C224,275.6,223.6,275.2,223.6,274.7 M203.7,278.1c-0.4,0-0.7-0.4-0.7-0.7l0,0l0.3-3.4
	c0-0.4,0.4-0.6,0.7-0.6c0.4,0,0.6,0.4,0.6,0.7l-0.2,3.4C204.4,277.8,204.1,278.1,203.7,278.1L203.7,278.1z M225,286.5L225,286.5
	l-0.5-3.4c-0.1-0.6,0.3-1.1,0.9-1.2c0.6-0.1,1.1,0.3,1.2,0.9l0.6,3.4c0.1,0.6-0.3,1.2-0.9,1.2c-0.1,0-0.1,0-0.2,0
	C225.5,287.4,225.1,287,225,286.5 M202.8,288.4L202.8,288.4l0-3.4c0-0.4,0.3-0.8,0.8-0.8c0.4,0,0.8,0.3,0.8,0.8l0.1,3.4
	c0,0.4-0.3,0.8-0.8,0.8h0C203.1,289.1,202.8,288.8,202.8,288.4 M227.4,298.1L227.4,298.1l-0.8-3.4c-0.2-0.6,0.2-1.3,0.9-1.4
	c0.6-0.2,1.3,0.2,1.4,0.8l0.9,3.3c0.2,0.7-0.2,1.3-0.9,1.5c-0.1,0-0.2,0.1-0.3,0.1C228.1,299,227.6,298.6,227.4,298.1 M203.4,299.4
	L203.4,299.4l-0.3-3.4c0-0.5,0.3-0.9,0.8-0.9c0.5,0,0.9,0.3,0.9,0.8l0.4,3.4c0,0.5-0.3,0.9-0.8,1h-0.1
	C203.9,300.1,203.5,299.8,203.4,299.4 M231,309.4L231,309.4l-1.1-3.3c-0.2-0.7,0.1-1.4,0.8-1.7c0.7-0.2,1.4,0.1,1.7,0.8l1.2,3.3
	c0.3,0.7-0.1,1.5-0.8,1.7c-0.2,0.1-0.3,0.1-0.5,0.1C231.7,310.3,231.2,310,231,309.4 M205.1,310.3L205.1,310.3l-0.6-3.4
	c-0.1-0.5,0.2-1,0.8-1.1c0.5-0.1,1,0.2,1.1,0.7l0.7,3.4c0.1,0.5-0.2,1-0.8,1.1c-0.1,0-0.1,0-0.2,0
	C205.6,311,205.2,310.7,205.1,310.3 M235.5,320.4L235.5,320.4l-1.4-3.2c-0.3-0.7,0-1.6,0.7-1.9c0.7-0.3,1.6,0,1.9,0.7l1.5,3.1
	c0.4,0.8,0,1.7-0.7,2c-0.2,0.1-0.4,0.2-0.7,0.2C236.3,321.3,235.8,321,235.5,320.4 M207.7,321L207.7,321l-0.9-3.3
	c-0.2-0.5,0.2-1.1,0.7-1.3c0.5-0.1,1.1,0.2,1.2,0.7l1,3.3c0.2,0.6-0.2,1.1-0.7,1.3c-0.1,0-0.2,0-0.3,0
	C208.2,321.7,207.8,321.4,207.7,321 M241.1,331L241.1,331l-1.7-3.1c-0.4-0.8-0.2-1.8,0.6-2.2c0.8-0.4,1.7-0.2,2.2,0.6l1.8,3
	c0.5,0.8,0.2,1.8-0.6,2.3c-0.3,0.2-0.6,0.2-0.9,0.2C241.9,331.8,241.4,331.5,241.1,331 M211.2,331.4L211.2,331.4l-1.2-3.2
	c-0.2-0.6,0.1-1.2,0.6-1.4c0.6-0.2,1.2,0.1,1.4,0.6l1.2,3.2c0.2,0.6-0.1,1.3-0.6,1.5c-0.1,0-0.3,0.1-0.4,0.1
	C211.8,332.2,211.4,331.9,211.2,331.4 M247.5,341L247.5,341l-2-2.9c-0.5-0.8-0.4-1.9,0.4-2.4c0.8-0.5,1.9-0.4,2.4,0.4l2,2.8
	c0.6,0.8,0.4,1.9-0.4,2.5c-0.3,0.2-0.7,0.3-1.1,0.3C248.4,341.7,247.9,341.4,247.5,341 M215.7,341.5L215.7,341.5l-1.5-3.1
	c-0.3-0.6,0-1.3,0.6-1.6c0.6-0.3,1.3,0,1.6,0.5l1.5,3.1c0.3,0.6,0.1,1.4-0.6,1.7c-0.2,0.1-0.4,0.1-0.5,0.1
	C216.3,342.2,215.9,342,215.7,341.5 M254.9,350.4L254.9,350.4l-2.2-2.7c-0.7-0.8-0.6-2,0.2-2.7c0.8-0.7,2-0.6,2.6,0.2l2.3,2.6
	c0.7,0.8,0.6,2-0.2,2.7c-0.4,0.3-0.8,0.5-1.3,0.5C255.8,351,255.3,350.8,254.9,350.4 M221,351.3L221,351.3l-1.8-3
	c-0.4-0.6-0.2-1.4,0.5-1.8c0.6-0.4,1.4-0.2,1.7,0.5l1.8,2.9c0.4,0.6,0.2,1.4-0.4,1.8c-0.2,0.1-0.5,0.2-0.7,0.2
	C221.7,351.9,221.2,351.6,221,351.3 M263,359.1L263,359.1l-2.5-2.5c-0.8-0.8-0.8-2.1,0-2.9c0.8-0.8,2.1-0.8,2.8,0l2.5,2.4
	c0.8,0.8,0.9,2.1,0.1,2.9c-0.4,0.4-1,0.6-1.5,0.6C264,359.7,263.4,359.5,263,359.1 M226.2,359L226.2,359l-1-1.4
	c-0.4-0.6-0.3-1.5,0.3-1.9c0.6-0.4,1.5-0.3,1.9,0.3l1,1.4c0.5,0.6,0.3,1.5-0.3,1.9c-0.2,0.2-0.5,0.3-0.8,0.3
	C226.8,359.6,226.4,359.4,226.2,359"/>
<path class="st0" d="M233.9,261.3c5.2,65.4,50.6,116.8,107.5,125.3c1.2,0.2,2.4-0.2,3.3-1.1l32.4-32.4c1.3-1.3,0.4-3.6-1.5-3.6
	c-65.1,1.1-119.2-37.2-136.3-89.3c-0.5-1.6-1.5-2.3-2.6-2.3C235.2,258,233.9,259.2,233.9,261.3 M235,263.2L235,263.2l-0.1-1.7
	L235,263.2L235,263.2L235,263.2z M241,268.8L241,268.8l-1.1-3.3l0-0.1l0.1,0l1.2,3.2c0,0,0,0.1-0.1,0.1L241,268.8
	C241,268.9,241,268.8,241,268.8 M236.3,274.1L236.3,274.1l-0.5-3.4c0-0.1,0-0.1,0.1-0.1c0,0,0.1,0,0.1,0.1l0.5,3.4
	c0,0.1,0,0.1-0.1,0.1L236.3,274.1C236.4,274.2,236.3,274.1,236.3,274.1 M245.4,279.7L245.4,279.7l-1.4-3.2c0-0.1,0-0.2,0.1-0.3
	c0.1,0,0.2,0,0.3,0.1l1.5,3.1c0.1,0.1,0,0.2-0.1,0.3l-0.1,0C245.6,279.9,245.5,279.8,245.4,279.7 M238.4,284.9L238.4,284.9l-0.7-3.4
	c0-0.1,0-0.2,0.1-0.2c0.1,0,0.2,0,0.2,0.1l0.8,3.3c0,0.1,0,0.2-0.1,0.2h0C238.5,285,238.5,284.9,238.4,284.9 M250.8,290.2
	L250.8,290.2l-1.7-3c-0.1-0.2,0-0.4,0.1-0.5c0.2-0.1,0.4,0,0.5,0.1l1.7,3c0.1,0.2,0,0.4-0.1,0.5c-0.1,0-0.1,0.1-0.2,0.1
	C251,290.4,250.9,290.3,250.8,290.2 M241.4,295.4L241.4,295.4l-1-3.3c0-0.1,0-0.3,0.2-0.3c0.1,0,0.3,0,0.3,0.2l1.1,3.3
	c0,0.1,0,0.3-0.2,0.3l-0.1,0C241.5,295.6,241.4,295.5,241.4,295.4 M257,300.2L257,300.2l-1.9-2.9c-0.1-0.2-0.1-0.5,0.1-0.6
	c0.2-0.1,0.5-0.1,0.7,0.1l2,2.8c0.2,0.2,0.1,0.6-0.1,0.7c-0.1,0.1-0.2,0.1-0.3,0.1C257.3,300.5,257.2,300.4,257,300.2 M245.1,305.7
	L245.1,305.7l-1.2-3.2c-0.1-0.2,0-0.4,0.2-0.4c0.2-0.1,0.4,0,0.4,0.2l1.3,3.2c0.1,0.2,0,0.4-0.2,0.5c0,0-0.1,0-0.1,0
	C245.3,306,245.1,305.9,245.1,305.7 M264.1,309.7L264.1,309.7L262,307c-0.2-0.3-0.2-0.7,0.1-0.9c0.3-0.2,0.6-0.2,0.9,0.1l2.2,2.7
	c0.2,0.3,0.2,0.7-0.1,0.9c-0.1,0.1-0.3,0.1-0.4,0.1C264.4,309.9,264.2,309.8,264.1,309.7 M249.6,315.7L249.6,315.7l-1.5-3.1
	c-0.1-0.2,0-0.5,0.2-0.5c0.2-0.1,0.5,0,0.6,0.2l1.5,3.1c0.1,0.2,0,0.5-0.2,0.6c-0.1,0-0.1,0-0.2,0
	C249.9,316,249.7,315.9,249.6,315.7 M272,318.5L272,318.5l-2.4-2.5c-0.3-0.3-0.3-0.8,0-1.1s0.8-0.3,1.1,0l2.4,2.5
	c0.3,0.3,0.3,0.8,0,1.1c-0.2,0.2-0.4,0.2-0.6,0.2C272.4,318.8,272.2,318.7,272,318.5 M255,325.3L255,325.3l-1.8-2.9
	c-0.1-0.3-0.1-0.6,0.2-0.7c0.2-0.2,0.5-0.1,0.7,0.2l1.8,2.9c0.1,0.3,0.1,0.6-0.2,0.7c-0.1,0-0.2,0.1-0.3,0.1
	C255.2,325.6,255.1,325.5,255,325.3 M280.6,326.6L280.6,326.6l-2.6-2.3c-0.4-0.3-0.4-0.9-0.1-1.3c0.3-0.4,0.9-0.4,1.3-0.1l2.6,2.2
	c0.4,0.4,0.5,1,0.1,1.3c-0.2,0.2-0.5,0.3-0.7,0.3C281,326.9,280.8,326.8,280.6,326.6 M289.9,334L289.9,334l-2.8-2.1
	c-0.5-0.3-0.6-1-0.2-1.5c0.3-0.5,1-0.5,1.4-0.2l2.8,2c0.5,0.3,0.6,1,0.3,1.5c-0.2,0.3-0.5,0.5-0.9,0.5
	C290.3,334.2,290.1,334.1,289.9,334 M261.1,334.4L261.1,334.4l-2-2.8c-0.2-0.3-0.1-0.6,0.1-0.8c0.3-0.2,0.6-0.1,0.8,0.1l2,2.8
	c0.2,0.3,0.1,0.7-0.1,0.9c-0.1,0.1-0.2,0.1-0.4,0.1C261.4,334.7,261.2,334.6,261.1,334.4 M299.9,340.4L299.9,340.4l-3-1.8
	c-0.6-0.3-0.7-1.1-0.4-1.6c0.3-0.5,1.1-0.7,1.6-0.4l3,1.7c0.6,0.3,0.8,1.1,0.5,1.7c-0.2,0.4-0.6,0.6-1.1,0.6
	C300.3,340.6,300.1,340.5,299.9,340.4 M268,343L268,343l-2.2-2.6c-0.2-0.3-0.2-0.7,0.1-1c0.3-0.2,0.7-0.2,1,0.1l2.3,2.6
	c0.2,0.3,0.2,0.7-0.1,1c-0.1,0.1-0.3,0.2-0.5,0.2C268.3,343.3,268.1,343.2,268,343 M310.4,346L310.4,346l-3.1-1.5
	c-0.7-0.3-0.9-1.1-0.6-1.8c0.3-0.6,1.1-0.9,1.8-0.6l3.1,1.4c0.7,0.3,1,1.1,0.7,1.8c-0.2,0.5-0.7,0.8-1.3,0.8
	C310.8,346.1,310.6,346.1,310.4,346 M321.4,350.5L321.4,350.5l-3.3-1.2c-0.8-0.3-1.1-1.1-0.9-1.9c0.3-0.7,1.1-1.1,1.9-0.9l3.3,1.1
	c0.8,0.3,1.2,1.1,0.9,1.9c-0.2,0.6-0.8,1-1.4,1C321.7,350.6,321.6,350.6,321.4,350.5 M275.6,351L275.6,351l-2.4-2.4
	c-0.3-0.3-0.3-0.8,0-1.1c0.3-0.3,0.8-0.3,1.1,0l2.5,2.4c0.3,0.3,0.3,0.8,0,1.1c-0.2,0.2-0.4,0.2-0.6,0.2
	C275.9,351.2,275.7,351.2,275.6,351 M332.8,354.1L332.8,354.1l-3.4-0.9c-0.9-0.2-1.4-1.1-1.1-2c0.2-0.8,1.1-1.4,1.9-1.1l3.4,0.8
	c0.9,0.2,1.4,1.1,1.2,2c-0.2,0.8-0.9,1.3-1.6,1.3C333.1,354.1,332.9,354.1,332.8,354.1 M344.4,356.5L344.4,356.5l-3.4-0.6
	c-1-0.1-1.6-1.1-1.4-2c0.2-0.9,1-1.6,2-1.4l3.4,0.5c1,0.2,1.6,1.1,1.5,2c-0.1,0.9-0.9,1.5-1.8,1.5
	C344.6,356.6,344.5,356.6,344.4,356.5 M356.3,358L356.3,358l-3.5-0.3c-1-0.1-1.8-1-1.7-2.1c0.1-1,1-1.8,2-1.7l3.5,0.2
	c1.1,0.1,1.9,1,1.8,2.1c-0.1,1-0.9,1.8-1.9,1.8H356.3 M364.7,358.4c-1.1,0-2-0.9-2-2c0-1.1,0.9-2,2-2l3.5-0.1c1.1,0,2.1,0.9,2.1,2
	c0,1.2-0.9,2.1-2,2.1h-0.1L364.7,358.4z M283.8,358.3L283.8,358.3l-2.6-2.2c-0.4-0.3-0.4-0.8-0.1-1.2c0.3-0.4,0.8-0.4,1.2-0.1
	l2.7,2.1c0.4,0.3,0.4,0.9,0.1,1.2c-0.2,0.2-0.4,0.3-0.7,0.3C284.2,358.5,284,358.4,283.8,358.3 M292.7,364.8L292.7,364.8l-2.8-2
	c-0.4-0.3-0.5-0.9-0.2-1.3c0.3-0.4,0.9-0.5,1.3-0.2l2.9,1.9c0.4,0.3,0.6,0.9,0.3,1.4c-0.2,0.3-0.5,0.4-0.8,0.4
	C293.1,365,292.9,365,292.7,364.8 M302.1,370.6L302.1,370.6l-3-1.7c-0.5-0.3-0.7-0.9-0.4-1.4c0.3-0.5,0.9-0.6,1.4-0.4l3,1.6
	c0.5,0.3,0.7,0.9,0.4,1.4c-0.2,0.3-0.6,0.5-0.9,0.5C302.5,370.7,302.3,370.7,302.1,370.6 M312,375.5L312,375.5l-3.1-1.4
	c-0.6-0.3-0.8-0.9-0.5-1.5c0.2-0.5,0.9-0.8,1.5-0.5l3.1,1.4c0.6,0.3,0.8,0.9,0.6,1.5c-0.2,0.4-0.6,0.7-1,0.7
	C312.3,375.6,312.2,375.6,312,375.5 M322.3,379.5L322.3,379.5l-3.2-1.2c-0.6-0.2-1-0.9-0.7-1.5c0.2-0.6,0.9-1,1.5-0.7l3.2,1.1
	c0.6,0.2,1,0.9,0.8,1.5c-0.2,0.5-0.7,0.8-1.2,0.8C322.6,379.6,322.4,379.5,322.3,379.5 M332.9,382.6L332.9,382.6l-3.3-0.9
	c-0.7-0.2-1.1-0.9-0.9-1.6c0.2-0.7,0.9-1.1,1.5-0.9l3.3,0.8c0.7,0.2,1.1,0.9,1,1.6c-0.1,0.6-0.7,1-1.3,1
	C333.1,382.6,333,382.6,332.9,382.6 M342.1,384.4L342.1,384.4l-1.7-0.3c-0.8-0.1-1.3-0.9-1.1-1.6c0.1-0.7,0.8-1.2,1.6-1.1l1.7,0.3
	c0.8,0.1,1.3,0.8,1.2,1.6c-0.1,0.7-0.7,1.2-1.4,1.2C342.2,384.5,342.2,384.4,342.1,384.4"/>
<path class="st0" d="M441.8,271.7c-45.2,46.9-110.6,58-159.5,33.3c-3.4-1.8-5.6,1.9-3,4.5c50,42.6,118.4,46.8,164.6,12.6
	c1-0.7,1.5-1.9,1.5-3.1v-45.8c0-1.3-1-2.1-2.1-2.1C442.8,271.1,442.3,271.3,441.8,271.7 M437.6,285.6c-0.8-0.8-0.8-2,0-2.9l2.4-2.5
	c0.8-0.8,2.1-0.8,2.9-0.1c0.8,0.8,0.8,2.1,0,2.9l0,0l-2.5,2.4c-0.4,0.4-0.9,0.6-1.4,0.6C438.5,286.2,438,286,437.6,285.6
	 M428.9,293.3c-0.7-0.8-0.6-1.9,0.2-2.6l2.6-2.3c0.8-0.7,2-0.6,2.7,0.2c0.7,0.8,0.6,2-0.2,2.7l0,0l-2.7,2.2
	c-0.3,0.3-0.8,0.4-1.2,0.4C429.8,294,429.2,293.8,428.9,293.3 M419.5,300.2c-0.5-0.8-0.4-1.9,0.4-2.4l2.8-2c0.8-0.6,1.9-0.4,2.5,0.4
	c0.6,0.8,0.4,1.9-0.4,2.5l0,0l-2.8,2c-0.3,0.2-0.7,0.3-1,0.3C420.4,301,419.9,300.7,419.5,300.2 M409.6,306.3
	c-0.4-0.8-0.2-1.7,0.6-2.2l3-1.8c0.8-0.5,1.8-0.2,2.3,0.5c0.5,0.8,0.2,1.8-0.6,2.3l0,0l-3,1.7c-0.3,0.1-0.5,0.2-0.8,0.2
	C410.4,307.1,409.9,306.8,409.6,306.3 M399.2,311.4c-0.3-0.7,0-1.6,0.7-1.9l3.1-1.5c0.7-0.4,1.6,0,2,0.7c0.4,0.8,0,1.6-0.7,2l0,0
	l-3.2,1.4c-0.2,0.1-0.4,0.1-0.6,0.1C399.9,312.3,399.4,312,399.2,311.4 M289.6,309.8L289.6,309.8l-3.1-1.5l0-0.1l0.1,0l3.2,1.4
	c0,0,0.1,0.1,0,0.1C289.7,309.8,289.7,309.8,289.6,309.8L289.6,309.8z M281.5,310.1l-1.3-1.1L281.5,310.1L281.5,310.1L281.5,310.1
	L281.5,310.1z M388.3,315.6c-0.2-0.7,0.1-1.4,0.8-1.7l3.2-1.2c0.7-0.3,1.5,0.1,1.8,0.8c0.3,0.7-0.1,1.5-0.8,1.8l0,0l-3.3,1.1
	c-0.1,0.1-0.3,0.1-0.4,0.1C389,316.5,388.5,316.2,388.3,315.6 M300.5,314.4L300.5,314.4l-3.2-1.2c-0.1,0-0.1-0.2-0.1-0.2
	c0-0.1,0.1-0.2,0.2-0.1l3.3,1.2c0.1,0,0.2,0.2,0.1,0.3C300.8,314.3,300.7,314.4,300.5,314.4L300.5,314.4z M290.1,316.8L290.1,316.8
	l-2.7-2l0-0.1l0.1,0l2.8,2c0,0,0.1,0.1,0,0.1L290.1,316.8L290.1,316.8z M311.7,318L311.7,318l-3.3-1c-0.2-0.1-0.3-0.2-0.2-0.4
	c0-0.2,0.2-0.3,0.4-0.2l3.3,0.9c0.2,0,0.3,0.3,0.3,0.5c0,0.2-0.2,0.3-0.4,0.3L311.7,318z M377.1,318.8c-0.1-0.6,0.2-1.3,0.8-1.4
	l3.3-0.9c0.6-0.2,1.3,0.2,1.5,0.9c0.2,0.7-0.2,1.3-0.9,1.5l0,0l-3.4,0.8c-0.1,0-0.2,0-0.3,0C377.7,319.7,377.3,319.3,377.1,318.8
	 M439.6,320.7c-0.4-0.6-0.3-1.5,0.3-1.9l1.4-1c0.6-0.4,1.5-0.3,1.9,0.3c0.4,0.6,0.3,1.5-0.3,1.9h0l-1.4,1c-0.2,0.2-0.5,0.2-0.8,0.2
	C440.3,321.3,439.8,321.1,439.6,320.7 M323.2,320.7L323.2,320.7l-3.4-0.7c-0.3,0-0.4-0.3-0.4-0.6c0.1-0.3,0.3-0.4,0.5-0.4l3.4,0.6
	c0.3,0.1,0.5,0.3,0.4,0.6C323.8,320.5,323.6,320.7,323.2,320.7L323.2,320.7z M365.7,320.9c-0.1-0.6,0.3-1.1,0.9-1.2l3.4-0.6
	c0.6-0.1,1.2,0.3,1.3,0.9c0.1,0.6-0.3,1.2-0.9,1.3h0l-3.4,0.5c-0.1,0-0.1,0-0.2,0C366.2,321.8,365.8,321.4,365.7,320.9 M334.9,322.3
	L334.9,322.3l-3.5-0.4c-0.3-0.1-0.6-0.3-0.5-0.7c0-0.3,0.3-0.6,0.7-0.5l3.4,0.3c0.4,0,0.6,0.3,0.6,0.7
	C335.6,322.1,335.3,322.4,334.9,322.3L334.9,322.3z M354.1,322c0-0.5,0.3-0.9,0.8-1l3.5-0.3c0.5,0,1,0.3,1,0.9c0,0.5-0.3,1-0.9,1h0
	l-3.5,0.2H355C354.6,322.9,354.1,322.5,354.1,322 M299.2,322.9L299.2,322.9l-2.9-1.8c-0.1-0.1-0.1-0.2,0-0.2c0-0.1,0.1-0.1,0.2,0
	l2.9,1.8c0.1,0,0.1,0.2,0.1,0.2C299.4,322.9,299.3,323,299.2,322.9L299.2,322.9z M343.2,322.9c-0.4,0-0.8-0.4-0.7-0.8
	c0-0.4,0.4-0.7,0.8-0.7h3.5c0.4,0,0.8,0.4,0.8,0.8c0,0.4-0.4,0.8-0.8,0.8h0L343.2,322.9z M430.4,326.5c-0.4-0.6-0.2-1.4,0.4-1.7
	l2.9-1.8c0.6-0.4,1.4-0.2,1.8,0.4c0.4,0.6,0.2,1.4-0.4,1.8l0,0l-2.9,1.7c-0.2,0.1-0.4,0.2-0.6,0.2
	C431,327.2,430.6,326.9,430.4,326.5 M308.7,328.4L308.7,328.4l-3-1.6c-0.1-0.1-0.2-0.2-0.1-0.3c0.1-0.1,0.2-0.2,0.3-0.1l3,1.6
	c0.1,0.1,0.2,0.2,0.1,0.4c0,0.1-0.1,0.2-0.2,0.2C308.8,328.4,308.8,328.4,308.7,328.4 M420.7,331.5c-0.3-0.6,0-1.3,0.5-1.6l3.1-1.5
	c0.6-0.3,1.3,0,1.6,0.6c0.3,0.6,0.1,1.3-0.5,1.6h0l-3.1,1.5c-0.2,0.1-0.3,0.1-0.5,0.1C421.3,332.2,420.9,331.9,420.7,331.5
	 M318.7,333L318.7,333l-3.1-1.4c-0.2-0.1-0.2-0.3-0.2-0.4c0.1-0.2,0.3-0.2,0.4-0.2l3.2,1.3c0.2,0.1,0.3,0.3,0.2,0.5
	c-0.1,0.1-0.2,0.2-0.3,0.2C318.7,333.1,318.7,333,318.7,333 M410.7,335.5c-0.2-0.6,0.1-1.2,0.6-1.4l3.2-1.2c0.6-0.2,1.2,0.1,1.5,0.6
	c0.2,0.6-0.1,1.3-0.6,1.5h0l-3.2,1.2c-0.1,0-0.3,0.1-0.4,0.1C411.2,336.3,410.8,336,410.7,335.5 M328.9,336.9L328.9,336.9l-3.2-1.1
	c-0.2-0.1-0.3-0.3-0.3-0.5c0.1-0.2,0.3-0.3,0.5-0.3l3.3,1.1c0.2,0.1,0.4,0.3,0.3,0.6c-0.1,0.2-0.2,0.3-0.4,0.3
	C329,336.9,329,336.9,328.9,336.9 M400.3,338.7c-0.1-0.5,0.2-1.1,0.7-1.3l3.3-1c0.6-0.1,1.1,0.2,1.3,0.7c0.2,0.5-0.2,1.1-0.7,1.3h0
	l-3.3,0.9c-0.1,0-0.2,0-0.3,0C400.8,339.5,400.4,339.2,400.3,338.7 M339.5,339.9L339.5,339.9l-3.3-0.8c-0.3-0.1-0.4-0.3-0.4-0.6
	c0.1-0.3,0.3-0.4,0.6-0.4l3.3,0.8c0.3,0.1,0.5,0.4,0.4,0.6c-0.1,0.2-0.3,0.4-0.5,0.4C339.6,339.9,339.5,339.9,339.5,339.9
	 M389.7,341c-0.1-0.5,0.2-1,0.7-1.1l3.3-0.7c0.5-0.1,1,0.2,1.1,0.8c0.1,0.5-0.2,1-0.8,1.1h0l-3.4,0.6h-0.2
	C390.1,341.8,389.7,341.4,389.7,341 M350.3,342L350.3,342l-3.4-0.6c-0.3,0-0.5-0.4-0.5-0.7c0-0.3,0.4-0.5,0.7-0.5l3.4,0.5
	c0.3,0,0.6,0.4,0.5,0.7C350.9,341.8,350.7,342,350.3,342L350.3,342z M378.9,342.3c0-0.5,0.3-0.9,0.8-0.9l3.4-0.4
	c0.5,0,0.9,0.3,1,0.8c0,0.5-0.3,0.9-0.8,1l0,0l-3.4,0.3h-0.1C379.3,343.1,378.9,342.8,378.9,342.3 M361.2,343.2L361.2,343.2
	l-3.4-0.3c-0.4,0-0.7-0.4-0.6-0.7c0-0.4,0.4-0.6,0.7-0.6l3.4,0.2c0.4,0,0.7,0.4,0.7,0.7C362,342.9,361.6,343.2,361.2,343.2
	L361.2,343.2z M368,342.7c0-0.4,0.3-0.8,0.7-0.8l3.4-0.1c0.4,0,0.8,0.3,0.8,0.8c0,0.4-0.3,0.8-0.8,0.8h0l-3.4,0h0
	C368.4,343.5,368,343.1,368,342.7"/>
<path class="st0" d="M486.9,322.3c0.3,0,0.6,0.2,0.7,0.5l0.8,2.4c0.1,0.2,0.2,0.4,0.5,0.4l2.4,0.7c0.5,0.2,0.7,0.9,0.2,1.2l-2.1,1.5
	c-0.2,0.1-0.3,0.4-0.3,0.6l0,2.5c0,0.4-0.3,0.7-0.7,0.7c-0.1,0-0.3,0-0.4-0.1l-2-1.5c-0.1-0.1-0.3-0.1-0.4-0.1c-0.1,0-0.2,0-0.2,0
	l-2.4,0.8c-0.1,0-0.1,0-0.2,0c-0.4,0-0.8-0.4-0.6-0.9l0.8-2.4c0.1-0.2,0-0.5-0.1-0.6l-1.5-2c-0.3-0.5,0-1.1,0.5-1.1l2.5,0h0
	c0.2,0,0.4-0.1,0.6-0.3l1.4-2.1C486.5,322.4,486.7,322.3,486.9,322.3 M378.2,365.1c-0.2,0-0.5,0.1-0.6,0.3l-1.6,2.2
	c-0.1,0.2-0.4,0.3-0.6,0.3h-2.7h0c-0.6,0-1,0.7-0.6,1.2l1.6,2.2c0.1,0.2,0.2,0.4,0.1,0.7l-0.9,2.6c-0.2,0.5,0.2,1,0.7,1
	c0.1,0,0.2,0,0.2-0.1l2.6-0.9c0.1,0,0.2,0,0.2,0c0.2,0,0.3,0,0.4,0.1l2.2,1.6c0.1,0.1,0.3,0.1,0.4,0.1c0.4,0,0.8-0.3,0.7-0.8
	l-0.1-2.7c0-0.2,0.1-0.5,0.3-0.6l2.2-1.6c0.5-0.4,0.4-1.1-0.2-1.3l-2.6-0.8c-0.2-0.1-0.4-0.2-0.5-0.5l-0.8-2.6
	C378.8,365.3,378.5,365.1,378.2,365.1 M450.3,351.5c-0.2-0.5-0.9-0.6-1.2-0.2l-1.4,2c-0.1,0.2-0.3,0.3-0.6,0.3l-2.5,0
	c-0.6,0-0.9,0.6-0.5,1.1l1.5,1.9c0.1,0.2,0.2,0.4,0.1,0.6l-0.8,2.3c-0.2,0.5,0.3,1,0.9,0.9l2.3-0.8c0.2-0.1,0.4,0,0.6,0.1l2,1.5
	c0.4,0.3,1.1,0,1.1-0.5l0-2.5c0-0.2,0.1-0.4,0.3-0.6l2-1.4c0.5-0.3,0.3-1-0.2-1.2l-2.4-0.7c-0.2-0.1-0.4-0.2-0.5-0.4L450.3,351.5
	 M485.3,267.6c-0.4,0-0.8,0.2-1.1,0.5l-2.7,3.9c-0.2,0.4-0.6,0.6-1.1,0.6h0l-4.8,0h0c-1.1,0-1.7,1.2-1,2.1l2.9,3.8
	c0.3,0.3,0.3,0.8,0.2,1.2l-1.5,4.5c-0.3,0.9,0.4,1.7,1.2,1.7c0.1,0,0.3,0,0.4-0.1l4.5-1.6c0.1,0,0.3-0.1,0.4-0.1
	c0.3,0,0.5,0.1,0.8,0.2l3.9,2.9c0.2,0.2,0.5,0.2,0.8,0.2c0.7,0,1.3-0.5,1.3-1.3l-0.1-4.8c0-0.4,0.2-0.8,0.5-1.1l3.9-2.8
	c0.9-0.6,0.7-2-0.4-2.3l-4.6-1.4c-0.4-0.1-0.7-0.4-0.9-0.9l-1.5-4.6C486.4,268,485.8,267.6,485.3,267.6 M423.5,257.4
	c-0.2-0.5-0.9-0.6-1.2-0.2l-1.4,2c-0.1,0.2-0.3,0.3-0.6,0.3l-2.5,0c-0.6,0-0.9,0.6-0.5,1.1l1.5,1.9c0.1,0.2,0.2,0.4,0.1,0.6
	l-0.8,2.3c-0.2,0.5,0.3,1,0.9,0.9l2.3-0.8c0.2-0.1,0.4,0,0.6,0.1l2,1.4c0.5,0.3,1.1,0,1.1-0.5l-0.1-2.5c0-0.2,0.1-0.4,0.3-0.6l2-1.4
	c0.5-0.3,0.3-1-0.2-1.2l-2.4-0.7c-0.2-0.1-0.4-0.2-0.5-0.4L423.5,257.4"/>
</svg>
